<svg width="32" height="26" viewBox="0 0 32 26" fill="none" xmlns="http://www.w3.org/2000/svg">
<g clip-path="url(#clip0_2026_60)">
<path d="M12.5537 14.3993C12.6701 12.3236 13.6864 10.495 15.2199 9.19859C16.7237 7.92534 18.7477 7.14709 20.9562 7.14709C23.1624 7.14709 25.1866 7.92534 26.6914 9.19859C28.2237 10.4948 29.2402 12.3236 29.3577 14.3971C29.4739 16.5298 28.6167 18.5111 27.1129 19.9797C25.5796 21.4736 23.3984 22.411 20.9562 22.411C18.5139 22.411 16.3286 21.4736 14.7962 19.9797C13.2913 18.511 12.4362 16.5297 12.5537 14.3993Z" fill="white"/>
<path d="M16.6461 14.5845C16.7057 13.5195 17.2274 12.5812 18.0141 11.916C18.7857 11.2628 19.8242 10.8634 20.9575 10.8634C22.0895 10.8634 23.1281 11.2628 23.9002 11.916C24.6865 12.5812 25.208 13.5195 25.2682 14.5835C25.328 15.6778 24.8882 16.6944 24.1165 17.4479C23.3297 18.2144 22.2106 18.6954 20.9575 18.6954C19.7044 18.6954 18.583 18.2144 17.7967 17.4479C17.0246 16.6944 16.5859 15.6778 16.6461 14.5845Z" fill="#265787"/>
<path d="M9.80136 16.7725C9.80886 17.19 9.94199 18.0018 10.1419 18.6355C10.5617 19.9771 11.274 21.2184 12.2651 22.3121C13.2822 23.4365 14.5346 24.3396 15.9814 24.9808C17.5019 25.6541 19.1494 25.9973 20.8606 25.9945C22.5691 25.9921 24.2167 25.6423 25.7372 24.9638C27.1839 24.3164 28.4351 23.4094 29.4506 22.2845C30.4411 21.1861 31.1522 19.9428 31.5734 18.6011C31.785 17.9233 31.9187 17.2353 31.9724 16.5449C32.0248 15.8638 32.0027 15.1791 31.9064 14.5029C31.7179 13.1765 31.2589 11.932 30.5522 10.7975C29.906 9.755 29.073 8.84238 28.0824 8.07413L28.0846 8.0725L18.0884 0.396877C18.0792 0.390127 18.0719 0.382877 18.0622 0.376627C17.4065 -0.126873 16.3035 -0.125123 15.5822 0.379377C14.853 0.889627 14.7695 1.7335 15.4185 2.26563L15.4157 2.2685L19.5851 5.659L6.87724 5.6725H6.86024C5.80986 5.67375 4.80024 6.36288 4.60024 7.23375C4.39486 8.121 5.10836 8.857 6.20049 8.861L6.19874 8.86488L12.64 8.85238L1.14599 17.675C1.13136 17.6858 1.11549 17.697 1.10199 17.7078C0.0177364 18.538 -0.332764 19.9186 0.350111 20.7923C1.04324 21.6808 2.51699 21.6824 3.61249 20.7974L9.88549 15.6635C9.88549 15.6635 9.79399 16.3565 9.80136 16.7725ZM25.9207 19.0933C24.6282 20.4101 22.8186 21.1568 20.8607 21.1608C18.8999 21.1641 17.0904 20.4241 15.7979 19.1096C15.1662 18.469 14.7024 17.7319 14.4161 16.9468C14.1346 16.1741 14.0264 15.3491 14.099 14.53C14.1672 13.7223 14.4077 12.9519 14.7915 12.2548C15.1685 11.5696 15.6877 10.9504 16.329 10.4266C17.5852 9.40288 19.1849 8.8485 20.8577 8.84625C22.5325 8.844 24.1309 9.39325 25.3885 10.4138C26.0285 10.9351 26.5472 11.5521 26.9242 12.2363C27.313 12.9371 27.5499 13.7119 27.6196 14.5103C27.6912 15.3288 27.5825 16.1532 27.3012 16.9253C27.0145 17.7128 26.5522 18.4499 25.9207 19.0933Z" fill="#EA7600"/>
</g>
<defs>
<clipPath id="clip0_2026_60">
<rect width="32" height="26" fill="white"/>
</clipPath>
</defs>
</svg>
