<svg width="46" height="46" viewBox="0 0 46 46" fill="none" xmlns="http://www.w3.org/2000/svg">
<g clip-path="url(#clip0_2026_18)">
<path d="M21.3438 0.0546675C21.1699 0.0729956 20.6268 0.137324 20.1478 0.193746C18.2165 0.414042 16.0265 0.994074 14.1045 1.80375C7.14884 4.71001 1.91383 11.0864 0.4695 18.4C0.129531 20.1394 0.046875 20.994 0.046875 23C0.046875 25.5857 0.303828 27.37 0.984844 29.6248C3.21117 37.0027 9.00717 42.7894 16.4042 45.0243C18.6305 45.6967 20.4245 45.9537 23.0005 45.9537C25.5862 45.9537 27.3705 45.6967 29.6252 45.0157C37.0032 42.7894 42.7899 36.9934 45.0248 29.5964C45.6972 27.37 45.9542 25.576 45.9542 23C45.9542 21.905 45.8995 20.6544 45.8348 20.1937C45.0895 14.8764 42.8995 10.405 39.2482 6.75234C35.6038 3.12768 31.1511 0.929386 25.9438 0.184042C25.2265 0.0826988 21.9051 -0.01002 21.3438 0.0546675ZM13.8462 14.5447C14.3349 14.692 14.5635 14.83 14.8948 15.161C15.5392 15.8151 15.6865 16.1734 15.6865 17.1573C15.6865 17.8944 15.6585 18.032 15.4382 18.418C15.0141 19.1353 14.0302 19.798 13.3495 19.816C12.8705 19.826 12.8902 19.614 13.4142 19.0624C14.1132 18.3354 14.2142 18.0597 14.2142 16.9733C14.2055 15.925 14.0765 15.5667 13.5892 15.272C13.1838 15.0237 12.7429 15.042 12.0985 15.345C10.4238 16.1464 8.6115 18.814 7.90389 21.5471C6.96484 25.1901 8.62983 28.1057 11.3715 27.6087C12.1715 27.4613 13.6805 26.6894 14.3349 26.0813C14.8768 25.5857 14.8768 25.576 14.9315 24.9601C15.0522 23.671 15.9618 22.3837 17.1776 21.7857C17.7375 21.509 17.8765 21.4824 18.6305 21.4824C19.3478 21.4824 19.5135 21.5191 19.8632 21.7113C20.9762 22.3474 20.7462 23.828 19.5415 23.828C18.8425 23.828 18.4832 23.4687 18.9899 23.2768C19.4869 23.0928 19.3015 22.402 18.7232 22.2461C18.0422 22.0707 17.2688 22.5311 16.7815 23.414C16.1922 24.4814 16.1652 25.7514 16.7255 26.33C17.2688 26.9097 17.9495 26.4508 18.4745 25.1337C18.7498 24.4627 19.1455 24.1033 19.6062 24.1033C20.0105 24.1033 20.0849 24.352 19.9092 25.1071C19.6511 26.275 19.8265 26.5783 20.5535 26.2204C20.7922 26.1094 21.1882 25.8528 21.4268 25.6688L21.8775 25.3094L22.1822 23.7174C22.5136 21.9331 22.6411 21.693 23.3222 21.5654C23.9762 21.4447 24.1236 21.7674 23.8835 22.788L23.7541 23.3594L24.2332 22.8707C25.3645 21.7113 26.7542 21.1414 27.2329 21.62C27.4898 21.877 27.4618 22.1997 27.0942 23.3397C26.9199 23.883 26.6798 24.7394 26.5705 25.2264C26.4049 25.962 26.3948 26.1374 26.4879 26.2571C26.7826 26.6064 27.6835 26.247 28.4839 25.465L28.9528 25.0061L29.0089 23.984C29.0635 22.8063 29.1731 22.3837 29.4862 22.006C29.7808 21.6567 30.3145 21.3997 30.5995 21.4727C30.8845 21.5471 30.8845 21.8224 30.6275 22.6324C30.2682 23.7454 30.3059 26.3117 30.6739 26.3117C30.8212 26.3117 31.5748 25.5211 32.0539 24.8587L32.4118 24.37L32.1268 24.0767C31.6298 23.552 31.5105 23.2121 31.5105 22.3557C31.5105 21.7311 31.5569 21.5007 31.7125 21.196C31.9709 20.7187 32.3752 20.3694 32.8539 20.2303C33.3591 20.0744 33.9852 20.3313 34.2421 20.7917C34.5005 21.2607 34.4362 22.3093 34.1045 23.0281L33.8659 23.5517H34.1875C34.6295 23.5517 34.8038 23.4421 35.5955 22.6967C36.0095 22.3011 36.4882 21.96 36.8462 21.7943C38.2542 21.1331 39.9109 21.4727 40.1858 22.4847C40.4158 23.2947 39.9109 23.8647 39.0265 23.8C38.3918 23.754 38.2725 23.588 38.6405 23.2768C39.3028 22.7233 38.6405 22.0161 37.6928 22.273C37.1775 22.4117 36.5978 22.9903 36.2949 23.6627C35.6868 25.0061 36.0095 26.588 36.8828 26.588C37.2325 26.588 37.8499 25.8977 38.0885 25.2264C38.3735 24.453 38.9715 23.966 39.4222 24.1411C39.6708 24.2327 39.6892 24.481 39.5332 25.263C39.3578 26.1194 39.3309 26.9197 39.4685 27.2874C39.5235 27.4247 39.6892 27.6831 39.8462 27.8574C40.1395 28.1883 40.1495 28.308 39.9008 28.4651C39.7815 28.5477 39.6241 28.5114 39.2385 28.2997C38.7048 28.023 38.2445 27.526 38.0788 27.057L37.9778 26.7817L37.6098 27.057C37.3978 27.2044 37.0668 27.37 36.8742 27.4247C36.1105 27.627 35.1715 27.1034 34.7309 26.2204C34.5551 25.879 34.5005 24.8771 34.6295 24.4907C34.7028 24.2787 34.7028 24.2787 34.4078 24.426C34.2522 24.5091 33.9208 24.6003 33.6639 24.6284C33.2398 24.6751 33.1751 24.7211 32.7529 25.2544C32.1549 25.9983 31.0962 27.0024 30.6638 27.2144C29.7445 27.6734 29.4412 27.5443 29.2012 26.5963L29.0355 25.962L28.6395 26.3117C28.1342 26.7537 27.1222 27.2874 26.5422 27.4164C25.9905 27.5357 25.4011 27.3603 25.1622 26.9923C24.8046 26.4407 24.9239 25.2727 25.4935 23.699C25.9161 22.5311 25.6132 22.5131 24.5462 23.6261C23.7545 24.4627 23.4145 25.0607 23.1942 25.99C22.9642 26.956 22.6875 27.3054 22.0629 27.4527C21.6852 27.5357 21.5095 27.3054 21.5842 26.8001L21.6388 26.3943L21.2892 26.6344C20.7922 26.9744 20.1661 27.2874 19.7338 27.4067C19.3015 27.526 18.7315 27.3981 18.5939 27.158C18.3455 26.7357 18.3455 26.7357 17.9596 27.0387C17.1215 27.7197 15.9255 27.526 15.3189 26.6247L15.1248 26.3397L14.5185 26.9011C12.7695 28.5017 10.5809 29.219 8.96117 28.722C6.90016 28.0974 5.76022 26.33 5.77855 23.782C5.78717 21.2244 6.91848 18.5291 8.82353 16.5327C9.90022 15.4097 10.9122 14.747 11.9429 14.4987C12.6868 14.3147 13.1389 14.324 13.8462 14.5447Z" fill="#00C4CC"/>
<path d="M32.4949 21.0867C32.2926 21.2887 32.367 22.0987 32.6243 22.6141C32.7533 22.8807 32.891 23.0928 32.937 23.0928C32.9736 23.0928 33.0563 22.8807 33.121 22.6223C33.351 21.6664 32.937 20.6443 32.4949 21.0867Z" fill="#00C4CC"/>
</g>
<defs>
<clipPath id="clip0_2026_18">
<rect width="46" height="46" fill="white"/>
</clipPath>
</defs>
</svg>
