<svg width="16" height="16" viewBox="0 0 16 16" fill="none" xmlns="http://www.w3.org/2000/svg">
<path d="M12.3594 8.32031C12.5729 8.69531 12.7318 9.08594 12.8359 9.49219C12.9401 9.89844 12.9948 10.3177 13 10.75V11.5547L8 14.0625L3 11.5547C3 11.2422 3.0026 10.9505 3.00781 10.6797C3.01302 10.4089 3.03646 10.1458 3.07812 9.89062C3.11979 9.63542 3.18229 9.38021 3.26562 9.125C3.34896 8.86979 3.47396 8.60156 3.64062 8.32031L2 7.5V12.0859C2.15104 12.138 2.28646 12.2109 2.40625 12.3047C2.52604 12.3984 2.63281 12.5078 2.72656 12.6328C2.82031 12.7578 2.88802 12.8932 2.92969 13.0391C2.97135 13.1849 2.99479 13.3385 3 13.5V16H0V13.5C0 13.3438 0.0234375 13.1927 0.0703125 13.0469C0.117188 12.901 0.184896 12.763 0.273438 12.6328C0.361979 12.5026 0.466146 12.3932 0.585938 12.3047C0.705729 12.2161 0.84375 12.1432 1 12.0859V7L0 6.5L8 2.5L16 6.5L12.3594 8.32031ZM2 13.5C2 13.3646 1.95052 13.2474 1.85156 13.1484C1.7526 13.0495 1.63542 13 1.5 13C1.36458 13 1.2474 13.0495 1.14844 13.1484C1.04948 13.2474 1 13.3646 1 13.5V15H2V13.5ZM2.23438 6.5L8 9.38281L13.7656 6.5L8 3.61719L2.23438 6.5ZM12 10.9375C12 10.5365 11.9609 10.1641 11.8828 9.82031C11.8047 9.47656 11.6667 9.125 11.4688 8.76562L8 10.5L4.53125 8.76562C4.35938 9.06771 4.22917 9.38542 4.14062 9.71875C4.05208 10.0521 4.00521 10.3958 4 10.75V10.9375L8 12.9375L12 10.9375Z" fill="#333D29"/>
</svg>
