<svg width="31" height="35" viewBox="0 0 31 35" fill="none" xmlns="http://www.w3.org/2000/svg">
<g clip-path="url(#clip0_2026_52)">
<path d="M24.8155 16.9931C27.1343 17.1536 28.9925 15.6439 29.4719 13.5623C28.6314 12.3614 26.8687 11.791 25.3139 12.7861C23.916 13.7841 23.5346 15.529 24.8155 16.9931ZM18.5377 0.733633L10.1454 5.40757L12.0861 6.43433L20.4712 1.77461L18.5377 0.733633ZM10.5747 13.5892L18.7736 32.455L20.9626 33.8108L11.7952 7.03534L9.61151 5.85478L0.882251 22.4632L2.47516 23.3646L9.99996 13.5195C10.1646 13.3336 10.4399 13.3276 10.5747 13.5892M25.2171 18.075C22.8327 16.7515 22.8327 13.4246 25.2171 12.1011C27.6014 10.7776 30.5981 12.4409 30.5981 15.0881C30.5981 17.7352 27.6014 19.3986 25.2171 18.075ZM27.9257 20.5641L30.9804 29.5445L21.6522 35L18.2194 32.8515L12.072 18.7193L2.55936 24.1232L0.00976562 22.6774L9.23472 5.18116L18.5246 0L21.4196 1.56796L24.351 10.2101C18.6863 13.3594 21.5332 21.344 27.9257 20.5641" fill="black"/>
</g>
<defs>
<clipPath id="clip0_2026_52">
<rect width="31" height="35" fill="white"/>
</clipPath>
</defs>
</svg>
