<svg width="39" height="39" viewBox="0 0 39 39" fill="none" xmlns="http://www.w3.org/2000/svg">
<g clip-path="url(#clip0_2026_12)">
<path d="M13.8633 39.3047C17.4891 39.3047 20.4141 36.3797 20.4141 32.7539V26.2031H13.8633C10.2375 26.2031 7.3125 29.1281 7.3125 32.7539C7.3125 36.3797 10.2375 39.3047 13.8633 39.3047Z" fill="#0ACF83"/>
<path d="M7.3125 19.6523C7.3125 16.0266 10.2375 13.1016 13.8633 13.1016H20.4141V26.2031H13.8633C10.2375 26.2031 7.3125 23.2781 7.3125 19.6523Z" fill="#A259FF"/>
<path d="M7.3125 6.55078C7.3125 2.925 10.2375 0 13.8633 0H20.4141V13.1016H13.8633C10.2375 13.1016 7.3125 10.1766 7.3125 6.55078Z" fill="#F24E1E"/>
<path d="M20.4141 0H26.9648C30.5906 0 33.5156 2.925 33.5156 6.55078C33.5156 10.1766 30.5906 13.1016 26.9648 13.1016H20.4141V0Z" fill="#FF7262"/>
<path d="M33.5156 19.6523C33.5156 23.2781 30.5906 26.2031 26.9648 26.2031C23.3391 26.2031 20.4141 23.2781 20.4141 19.6523C20.4141 16.0266 23.3391 13.1016 26.9648 13.1016C30.5906 13.1016 33.5156 16.0266 33.5156 19.6523Z" fill="#1ABCFE"/>
</g>
<defs>
<clipPath id="clip0_2026_12">
<rect width="39" height="39" fill="white"/>
</clipPath>
</defs>
</svg>
