<svg width="47" height="47" viewBox="0 0 47 47" fill="none" xmlns="http://www.w3.org/2000/svg">
<g clip-path="url(#clip0_2026_4)">
<path d="M6.41602 37.9217L12.2011 0.904036C12.2357 0.682808 12.339 0.478057 12.4963 0.318701C12.6536 0.159346 12.857 0.0534403 13.0778 0.0159432C13.2985 -0.021554 13.5255 0.0112525 13.7266 0.109729C13.9277 0.208205 14.0928 0.367374 14.1986 0.564755L20.1815 11.7236L22.566 7.18294C22.6567 7.01071 22.7927 6.86651 22.9593 6.76592C23.1259 6.66533 23.3169 6.61216 23.5115 6.61216C23.7062 6.61216 23.8971 6.66533 24.0637 6.76592C24.2304 6.86651 24.3664 7.01071 24.457 7.18294L40.6023 37.9217H6.41602Z" fill="#FFA000"/>
<path d="M26.4017 23.5019L20.1786 11.7181L6.41602 37.9217L26.4017 23.5019Z" fill="#F57C00"/>
<path d="M40.6023 37.9217L36.1714 10.503C36.1387 10.3098 36.0534 10.1292 35.9249 9.98116C35.7964 9.83311 35.6297 9.72326 35.4429 9.66364C35.2562 9.60416 35.0568 9.59716 34.8664 9.6434C34.676 9.68964 34.502 9.78734 34.3634 9.92581L6.41602 37.9213L21.8801 46.5935C22.3577 46.8601 22.8956 47.0001 23.4425 47.0001C23.9894 47.0001 24.5273 46.8601 25.0049 46.5935L40.6023 37.9217Z" fill="#FFCA28"/>
<path d="M36.1726 10.503C36.1398 10.3098 36.0545 10.1292 35.926 9.98118C35.7976 9.83313 35.6308 9.72328 35.4441 9.66365C35.2574 9.60413 35.058 9.59707 34.8676 9.64325C34.6772 9.68942 34.5032 9.78705 34.3645 9.92546L28.8174 15.4872L24.4556 7.18294C24.3649 7.0107 24.229 6.8665 24.0623 6.76591C23.8957 6.66532 23.7048 6.61215 23.5101 6.61215C23.3155 6.61215 23.1245 6.66532 22.9579 6.76591C22.7913 6.8665 22.6553 7.0107 22.5646 7.18294L20.1801 11.7232L14.1971 0.564747C14.0913 0.367095 13.9259 0.20776 13.7244 0.109306C13.523 0.0108522 13.2956 -0.0217315 13.0746 0.0161692C12.8538 0.0540595 12.6504 0.160421 12.4934 0.320212C12.3363 0.480003 12.2334 0.685136 12.1993 0.906599L6.41716 37.9217H6.39844L6.4168 37.943L6.56918 38.0179L34.3565 10.1983C34.495 10.0591 34.6693 9.96079 34.8601 9.91418C35.0509 9.86756 35.2508 9.87444 35.438 9.93405C35.6251 9.99366 35.7922 10.1037 35.9209 10.2521C36.0496 10.4005 36.1349 10.5814 36.1674 10.7751L40.5608 37.9481L40.6034 37.9213L36.1726 10.503ZM6.46784 37.871L12.2018 1.1684C12.2359 0.946822 12.3388 0.74157 12.496 0.581702C12.6531 0.421833 12.8566 0.315449 13.0776 0.277607C13.2986 0.239738 13.526 0.272376 13.7274 0.370899C13.9289 0.469421 14.0942 0.628832 14.2001 0.826552L20.1823 11.9854L22.5672 7.44474C22.6578 7.27251 22.7938 7.12831 22.9605 7.02772C23.1271 6.92713 23.318 6.87396 23.5127 6.87396C23.7073 6.87396 23.8983 6.92713 24.0649 7.02772C24.2315 7.12831 24.3675 7.27251 24.4582 7.44474L28.7315 15.5724L6.4671 37.871H6.46784Z" fill="white" fill-opacity="0.2"/>
<path opacity="0.2" d="M25.0056 46.3317C24.528 46.5983 23.9902 46.7383 23.4432 46.7383C22.8963 46.7383 22.3584 46.5983 21.8809 46.3317L6.45347 37.6845L6.41602 37.922L21.8801 46.5913C22.3577 46.8579 22.8956 46.9979 23.4425 46.9979C23.9894 46.9979 24.5273 46.8579 25.0049 46.5913L40.603 37.922L40.5626 37.676L25.0049 46.3325L25.0056 46.3317Z" fill="#A52714"/>
</g>
<defs>
<clipPath id="clip0_2026_4">
<rect width="47" height="47" fill="white"/>
</clipPath>
</defs>
</svg>
