<svg width="37" height="37" viewBox="0 0 37 37" fill="none" xmlns="http://www.w3.org/2000/svg">
<path d="M18.5007 3.08331C16.4761 3.08331 14.4714 3.48208 12.6009 4.25684C10.7305 5.0316 9.03099 6.16718 7.59942 7.59875C4.70824 10.4899 3.08398 14.4112 3.08398 18.5C3.08398 25.3141 7.50857 31.0954 13.629 33.1458C14.3998 33.2691 14.6465 32.7912 14.6465 32.375V29.7696C10.3761 30.6946 9.46648 27.7037 9.46648 27.7037C8.75732 25.9154 7.75523 25.4375 7.75523 25.4375C6.35232 24.4816 7.86315 24.5125 7.86315 24.5125C9.40482 24.6204 10.2219 26.1004 10.2219 26.1004C11.5632 28.4437 13.8294 27.75 14.7082 27.38C14.8469 26.3779 15.2477 25.6996 15.6794 25.3141C12.2569 24.9287 8.66482 23.6029 8.66482 17.7291C8.66482 16.0179 9.25065 14.6458 10.2527 13.5512C10.0986 13.1658 9.55898 11.5625 10.4069 9.48123C10.4069 9.48123 11.7019 9.06498 14.6465 11.0537C15.8644 10.7146 17.1902 10.545 18.5007 10.545C19.8111 10.545 21.1369 10.7146 22.3548 11.0537C25.2994 9.06498 26.5944 9.48123 26.5944 9.48123C27.4423 11.5625 26.9027 13.1658 26.7486 13.5512C27.7507 14.6458 28.3365 16.0179 28.3365 17.7291C28.3365 23.6183 24.729 24.9133 21.2911 25.2987C21.8461 25.7766 22.3548 26.7171 22.3548 28.1508V32.375C22.3548 32.7912 22.6015 33.2846 23.3877 33.1458C29.5082 31.08 33.9173 25.3141 33.9173 18.5C33.9173 16.4754 33.5186 14.4707 32.7438 12.6003C31.969 10.7298 30.8335 9.03032 29.4019 7.59875C27.9703 6.16718 26.2708 5.0316 24.4004 4.25684C22.5299 3.48208 20.5252 3.08331 18.5007 3.08331Z" fill="black"/>
</svg>
