<svg width="37" height="37" viewBox="0 0 37 37" fill="none" xmlns="http://www.w3.org/2000/svg">
<path d="M1.15625 1.15625V35.8438H35.8438V1.15625H1.15625ZM20.0332 28.2102C20.0332 31.5864 18.0537 33.1219 15.1654 33.1219C12.5592 33.1219 11.0457 31.7714 10.2767 30.1434L12.9315 28.5363C13.4437 29.4335 13.9097 30.2013 15.0266 30.2013C16.0973 30.2013 16.7726 29.7931 16.7726 28.1547V17.0778H20.0332V28.2102ZM27.7408 33.1219C24.7137 33.1219 22.7573 31.6789 21.8034 29.7919L24.457 28.2576C25.1554 29.3884 26.0642 30.2348 27.6714 30.2348C29.0207 30.2348 29.8717 29.5595 29.8717 28.6207C29.8717 27.5037 28.986 27.106 27.4968 26.4643L26.6874 26.1058C24.3356 25.1057 22.7758 23.8477 22.7758 21.1917C22.7758 18.7486 24.6304 16.8847 27.5488 16.8847C29.6208 16.8847 31.1101 17.6074 32.1831 19.4909L29.6509 21.1154C29.0959 20.1211 28.4877 19.7164 27.5558 19.7164C26.603 19.7164 25.9925 20.3199 25.9925 21.1154C25.9925 22.1006 26.5937 22.4891 27.9928 23.0926L28.8057 23.4511C31.5772 24.6304 33.1381 25.8445 33.1381 28.5732C33.1462 31.5147 30.8418 33.1173 27.7442 33.1173L27.7408 33.1219Z" fill="black"/>
</svg>
