<svg width="24" height="24" viewBox="0 0 24 24" fill="none" xmlns="http://www.w3.org/2000/svg">
<path fill-rule="evenodd" clip-rule="evenodd" d="M4.92846 4.92899C8.83346 1.02399 15.1655 1.02399 19.0705 4.92899C22.9755 8.83399 22.9755 15.166 19.0705 19.071C18.8829 19.2585 18.6286 19.3638 18.3635 19.3638C18.0983 19.3638 17.844 19.2585 17.6565 19.071L4.92846 6.34299C4.74099 6.15547 4.63567 5.90116 4.63567 5.63599C4.63567 5.37083 4.74099 5.11652 4.92846 4.92899ZM3.16846 7.41199C3.26133 7.31902 3.37162 7.24526 3.49302 7.19493C3.61442 7.14461 3.74454 7.11871 3.87596 7.11871C4.00737 7.11871 4.1375 7.14461 4.2589 7.19493C4.3803 7.24526 4.49059 7.31902 4.58346 7.41199L16.5875 19.416C16.6803 19.5089 16.7539 19.6192 16.8042 19.7406C16.8544 19.8619 16.8802 19.992 16.8802 20.1233C16.8801 20.2547 16.8542 20.3848 16.8039 20.5061C16.7536 20.6274 16.6799 20.7376 16.587 20.8305C16.494 20.9233 16.3838 20.997 16.2624 21.0472C16.141 21.0974 16.011 21.1232 15.8796 21.1232C15.7483 21.1232 15.6182 21.0972 15.4969 21.0469C15.3755 20.9966 15.2653 20.9229 15.1725 20.83L3.16946 8.82699C3.07648 8.73412 3.00272 8.62383 2.9524 8.50243C2.90207 8.38104 2.87617 8.25091 2.87617 8.11949C2.87617 7.98808 2.90207 7.85795 2.9524 7.73655C3.00272 7.61516 3.07648 7.50487 3.16946 7.41199H3.16846ZM2.30646 10.792C2.49399 10.6045 2.74829 10.4992 3.01346 10.4992C3.27862 10.4992 3.53293 10.6045 3.72046 10.792L13.2075 20.279C13.3896 20.4676 13.4904 20.7202 13.4881 20.9824C13.4859 21.2446 13.3807 21.4954 13.1953 21.6808C13.0099 21.8662 12.7591 21.9714 12.4969 21.9737C12.2347 21.9759 11.9821 21.8752 11.7935 21.693L2.30646 12.206C2.11899 12.0185 2.01367 11.7642 2.01367 11.499C2.01367 11.2338 2.11899 10.9795 2.30646 10.792ZM2.80646 15.536C2.89933 15.443 3.00962 15.3693 3.13102 15.3189C3.25242 15.2686 3.38254 15.2427 3.51396 15.2427C3.64537 15.2427 3.7755 15.2686 3.8969 15.3189C4.0183 15.3693 4.12859 15.443 4.22146 15.536L8.46346 19.778C8.55897 19.8702 8.63515 19.9806 8.68756 20.1026C8.73997 20.2246 8.76756 20.3558 8.76871 20.4886C8.76986 20.6214 8.74456 20.7531 8.69428 20.8759C8.644 20.9988 8.56975 21.1105 8.47585 21.2044C8.38196 21.2983 8.27031 21.3725 8.14741 21.4228C8.02452 21.4731 7.89284 21.4984 7.76006 21.4972C7.62728 21.4961 7.49606 21.4685 7.37405 21.4161C7.25205 21.3637 7.14171 21.2875 7.04946 21.192L2.80746 16.95C2.61999 16.7625 2.51467 16.5082 2.51467 16.243C2.51467 15.9778 2.61999 15.7235 2.80746 15.536H2.80646Z" fill="black"/>
</svg>
