<svg width="46" height="46" viewBox="0 0 46 46" fill="none" xmlns="http://www.w3.org/2000/svg">
<path fill-rule="evenodd" clip-rule="evenodd" d="M31.3594 35.9875C31.4201 35.8707 31.4783 35.7675 31.5279 35.6608C31.5592 35.5925 31.6073 35.5789 31.6753 35.5807C32.0824 35.5922 32.4896 35.6047 32.8971 35.6087C33.2432 35.6123 33.59 35.6058 33.9365 35.6019C34.3267 35.5972 34.717 35.5767 35.1069 35.5878C35.6262 35.6029 36.1322 35.7046 36.6019 35.9357C37.1629 36.2121 37.5873 36.6329 37.8766 37.1874C38.0586 37.539 38.1721 37.9219 38.2112 38.3159C38.273 38.8937 38.2324 39.4583 38.0491 40.011C37.822 40.696 37.3908 41.2203 36.7917 41.6131C36.3306 41.9154 35.825 42.094 35.283 42.196C34.7095 42.3042 34.1341 42.2693 33.5587 42.2711C32.9277 42.2737 32.297 42.26 31.6659 42.2528C31.5556 42.2517 31.5398 42.2309 31.5689 42.1256L31.5958 42.0286C31.6573 41.8352 31.6904 41.8266 31.8866 41.7942C32.0257 41.7727 32.1588 41.7221 32.2772 41.6458C32.3433 41.602 32.3707 41.4877 32.3965 41.3997C32.4188 41.3227 32.4199 41.2383 32.4206 41.1571C32.4296 39.9262 32.4389 38.6957 32.444 37.4656C32.4454 37.1544 32.4376 36.8433 32.4206 36.5326C32.4084 36.3152 32.2923 36.1664 32.0336 36.115C31.8323 36.0752 31.6296 36.0442 31.4273 36.0087L31.3594 35.9875ZM37.1367 38.9678C37.1094 38.7227 37.0961 38.4754 37.0522 38.2339C36.9473 37.6542 36.6936 37.1493 36.248 36.7537C35.5274 36.1143 34.6599 36.0159 33.7507 36.092C33.5437 36.1093 33.4991 36.1801 33.4959 36.3928C33.4908 36.6947 33.4858 36.9966 33.4854 37.2985C33.484 38.2558 33.484 39.2132 33.4854 40.1706C33.4854 40.4432 33.4892 40.7154 33.4966 40.9871C33.5052 41.2652 33.6062 41.5006 33.8786 41.6084C34.308 41.7784 34.7598 41.7986 35.2104 41.7292C35.9303 41.6189 36.4337 41.1995 36.7716 40.5709C37.0389 40.0721 37.1144 39.5277 37.1367 38.9678ZM38.8865 42.2277C38.8779 42.0785 38.939 41.9552 39.0144 41.842C39.0349 41.8115 39.1053 41.8129 39.1539 41.8032L39.5657 41.7217C39.7112 41.6907 39.7878 41.593 39.8083 41.4503C39.8219 41.3562 39.8349 41.2609 39.836 41.1657C39.8457 40.4121 39.8528 39.6585 39.8572 38.9049C39.8607 38.1502 39.8579 37.3955 39.8579 36.6408L39.8546 36.4967C39.8399 36.2541 39.7227 36.1283 39.482 36.0928L38.9598 36.0133C38.8955 36.0047 38.8721 35.9738 38.8955 35.9167C38.9357 35.8193 38.9742 35.7183 39.031 35.6306C39.0522 35.5983 39.1237 35.5857 39.1718 35.5868C39.4212 35.5904 39.6706 35.609 39.92 35.6087L42.091 35.5957C42.5093 35.5954 42.9133 35.6683 43.2885 35.8685C43.7014 36.0885 43.9325 36.4288 43.9986 36.8924C44.0676 37.3793 43.9199 37.7897 43.5641 38.1157C43.4178 38.2501 43.2285 38.3378 43.0588 38.447L43.0035 38.4815C43.1609 38.5394 43.3107 38.5893 43.4567 38.649C43.8836 38.824 44.2232 39.0975 44.4029 39.5341C44.5448 39.8788 44.5448 40.2382 44.4607 40.5954C44.3299 41.1546 43.9616 41.5265 43.4825 41.8079C43.033 42.072 42.5464 42.2259 42.0281 42.2517C41.5502 42.2758 41.07 42.2668 40.591 42.2722L40.3136 42.2737C39.8519 42.263 39.3902 42.2515 38.9285 42.2392L38.8865 42.2277ZM40.8763 40.0394H40.881C40.881 40.2759 40.8778 40.5124 40.8821 40.7488C40.885 40.9019 40.8796 41.0593 40.9126 41.2067C40.9622 41.427 41.0629 41.6257 41.3101 41.6889C41.6407 41.7755 41.9859 41.7907 42.3228 41.7335C42.7458 41.6598 43.0833 41.4478 43.2683 41.045C43.4056 40.7456 43.4261 40.4283 43.379 40.1041C43.3165 39.6772 43.0897 39.3674 42.7127 39.1643C42.4655 39.031 42.2017 38.9494 41.9207 38.9387C41.6059 38.9268 41.2907 38.9261 40.9759 38.9164C40.8875 38.9139 40.8753 38.9588 40.8756 39.0314C40.8774 39.367 40.8763 39.703 40.8763 40.0394ZM41.5466 38.4312C41.7187 38.4226 41.9135 38.4201 42.1072 38.4007C42.4781 38.3637 42.7393 38.1771 42.8755 37.8224C42.9449 37.6424 42.942 37.457 42.9438 37.2697C42.9492 36.782 42.6646 36.3824 42.2014 36.2171C41.8438 36.0895 41.4751 36.0874 41.1042 36.0974C40.954 36.1014 40.8868 36.1672 40.8846 36.3184L40.8623 38.2911C40.8612 38.3694 40.895 38.4032 40.9712 38.4057L41.5466 38.4312Z" fill="#94795D"/>
<path fill-rule="evenodd" clip-rule="evenodd" d="M3.78836 41.8485L3.76212 42.1877C3.51775 42.1877 3.29242 42.1859 3.06709 42.1885C2.64267 42.1928 2.21825 42.1996 1.79347 42.2057L1.7525 42.2082C1.69177 42.201 1.58144 42.201 1.57856 42.1831C1.56059 42.0821 1.56634 41.9761 1.57102 41.8715C1.57137 41.8596 1.6127 41.8445 1.63678 41.8388L1.96705 41.7651C2.17297 41.7116 2.24556 41.6228 2.25527 41.4101C2.26641 41.1704 2.27755 40.9303 2.27862 40.6906C2.28186 40.1005 2.27827 39.5111 2.28078 38.921C2.28114 38.783 2.23334 38.6802 2.10469 38.6242C1.9518 38.5563 1.79785 38.4909 1.64289 38.428C1.56958 38.3985 1.47434 38.3823 1.48297 38.2839C1.49159 38.1836 1.58395 38.1574 1.67092 38.1376C2.03102 38.0553 2.39147 37.9752 2.75048 37.8875C2.8662 37.8591 2.97689 37.8113 3.11525 37.7631C3.12244 37.8379 3.13573 37.909 3.1343 37.9802L3.11309 38.3184C3.11273 38.3565 3.1325 38.4075 3.16089 38.4287C3.17814 38.442 3.236 38.4179 3.26475 38.3956C3.57166 38.162 3.89653 37.9604 4.26705 37.8429C4.84097 37.6607 5.33367 37.8296 5.67867 38.3245C5.80014 38.4988 5.8005 38.4988 5.96905 38.3769C6.25834 38.1667 6.56094 37.9813 6.89947 37.8591C7.64266 37.5906 8.35673 37.9313 8.61513 38.6799C8.70928 38.9516 8.74522 39.2322 8.7445 39.519L8.73767 41.423C8.73731 41.58 8.78942 41.6695 8.93892 41.7184C9.10675 41.7734 9.28069 41.8111 9.46972 41.8607L9.42587 42.1881C9.21097 42.1881 9.01331 42.1867 8.81566 42.1885C8.33266 42.1928 7.84966 42.1953 7.36702 42.2064C7.28292 42.2086 7.261 42.1877 7.25669 42.109C7.24267 41.8571 7.24052 41.8575 7.4777 41.8007L7.55748 41.7802C7.78928 41.717 7.86655 41.6458 7.86834 41.4108C7.87373 40.7359 7.88775 40.0592 7.85361 39.3857C7.81803 38.6871 7.26352 38.3151 6.58645 38.4941C6.36795 38.554 6.16215 38.6531 5.97911 38.7866C5.91622 38.8315 5.90436 38.8833 5.90939 38.962C5.9288 39.2596 5.93994 39.5574 5.94281 39.8554C5.94712 40.3769 5.94066 40.8983 5.94281 41.4201C5.94353 41.6314 6.01577 41.7123 6.22456 41.7612L6.5347 41.8327L6.5922 41.8456C6.59652 41.9448 6.60047 42.044 6.5958 42.1432C6.59292 42.2054 6.54476 42.2107 6.49086 42.2097C6.18934 42.2021 5.88747 42.1921 5.58595 42.1928C5.21903 42.1935 4.85247 42.2039 4.48591 42.2104H4.39966C4.39966 42.1051 4.39462 42.0045 4.40325 41.9042C4.40505 41.8801 4.44745 41.8463 4.47656 41.8388L4.83809 41.7622C4.99155 41.7245 5.06486 41.6458 5.07348 41.4898C5.11445 40.7675 5.14392 40.0448 5.076 39.3228C5.05941 39.1802 5.01985 39.0413 4.95884 38.9113C4.77377 38.5024 4.35725 38.3317 3.87677 38.4546C3.64856 38.5128 3.44264 38.6174 3.24786 38.7492C3.20551 38.7755 3.17072 38.8124 3.1469 38.8562C3.12309 38.9 3.11106 38.9492 3.11202 38.999C3.11249 39.7197 3.11405 40.4401 3.11669 41.1603L3.12064 41.4381C3.12495 41.6318 3.20725 41.7339 3.39952 41.7755C3.52314 41.8036 3.6482 41.8226 3.78836 41.8485Z" fill="#50382B"/>
<path fill-rule="evenodd" clip-rule="evenodd" d="M25.5162 37.8368C25.5719 38.1078 25.5708 38.3514 25.3717 38.5362C25.174 38.7198 24.9239 38.658 24.6799 38.617C24.7025 38.7457 24.7277 38.8549 24.7399 38.9656C24.8287 39.7882 24.4747 40.3988 23.7118 40.7477C23.4235 40.8793 23.1177 40.9282 22.8054 40.9533C22.6502 40.9655 22.5143 41.0841 22.4996 41.2117C22.4845 41.3411 22.5657 41.474 22.7281 41.5129C22.9197 41.5585 23.1195 41.5714 23.3161 41.5941C23.738 41.6422 24.1646 41.6642 24.5814 41.7396C25.2118 41.8532 25.5636 42.4034 25.4526 43.0366C25.3537 43.6001 25.0274 44.0102 24.5725 44.3246C23.8059 44.8558 22.965 45.011 22.0694 44.74C21.5573 44.5848 21.1961 44.2481 21.0714 43.7032C21.0089 43.4305 21.0754 43.1836 21.2806 42.9985C21.5246 42.7793 21.7902 42.5838 22.0457 42.3768L22.1283 42.2938L22.0335 42.2273C21.7729 42.1037 21.5645 41.9344 21.4836 41.6404C21.456 41.5409 21.4847 41.4755 21.5692 41.4244C21.7129 41.338 21.8558 41.2499 21.9979 41.1603C22.0647 41.1186 22.1309 41.0755 22.193 41.0273C22.2778 40.9627 22.2703 40.9145 22.169 40.8771C21.9332 40.7902 21.7237 40.664 21.5613 40.47C21.2899 40.1462 21.213 39.7605 21.2353 39.3534C21.2702 38.7173 21.6155 38.2982 22.1769 38.0287C22.8442 37.7085 23.5137 37.6884 24.194 37.9802C24.4456 38.088 24.7108 38.111 24.9807 38.0923C25.1823 38.078 25.3584 38.0018 25.5162 37.8368ZM23.057 42.394C22.556 42.3897 22.399 42.4515 22.105 42.7509C21.7758 43.0866 21.7776 43.552 22.1061 43.889C22.3555 44.1446 22.6667 44.2642 23.0128 44.3002C23.4171 44.3419 23.8153 44.325 24.1825 44.1226C24.5743 43.9059 24.769 43.5034 24.681 43.0981C24.608 42.7635 24.3615 42.6104 24.0614 42.5223C23.72 42.4224 23.3671 42.4034 23.057 42.394ZM22.073 39.1927C22.0913 39.3318 22.0989 39.4727 22.1298 39.6089C22.2099 39.9618 22.3634 40.2719 22.7145 40.429C23.1267 40.6141 23.6532 40.5346 23.8336 39.956C23.9569 39.571 23.9426 39.1551 23.793 38.7794C23.7299 38.6076 23.6158 38.4592 23.4659 38.354C23.108 38.1042 22.4622 38.0711 22.1991 38.6231C22.1136 38.8025 22.0802 38.9933 22.073 39.1927Z" fill="#4F382B"/>
<path fill-rule="evenodd" clip-rule="evenodd" d="M17.0173 37.7481C17.0306 37.8095 17.0572 37.8792 17.0579 37.9493C17.059 38.0826 17.0446 38.216 17.0371 38.3493V38.465L17.1499 38.3788C17.459 38.1243 17.7911 37.9076 18.1778 37.7908C18.8757 37.5806 19.5729 37.9626 19.8003 38.6734C19.8866 38.9437 19.9207 39.2215 19.924 39.504C19.9311 40.1314 19.9355 40.7589 19.9419 41.3864C19.9441 41.6117 19.97 41.6519 20.1831 41.717C20.3043 41.7532 20.428 41.7807 20.5532 41.7993C20.6219 41.8101 20.6513 41.837 20.6477 41.9042L20.6485 41.966C20.6459 42.2259 20.628 42.2377 20.3761 42.237C19.773 42.2359 19.1704 42.2395 18.5673 42.2446C18.3876 42.246 18.3873 42.2514 18.3693 42.0738L18.3657 41.9718C18.3769 41.8187 18.3804 41.8201 18.531 41.7978C18.6324 41.7828 18.733 41.7594 18.8318 41.7335C18.9335 41.7073 18.9824 41.6322 18.9961 41.5316C19.0029 41.4805 19.0119 41.4295 19.0115 41.3785C19.0029 40.6928 19.014 40.0064 18.9766 39.3218C18.9465 38.768 18.5238 38.4381 17.9679 38.4758C17.6999 38.4944 17.4423 38.5868 17.2236 38.7428C17.0752 38.8467 17.0454 38.9965 17.0461 39.1579C17.0494 39.799 17.0547 40.4402 17.0619 41.0816C17.0633 41.2221 17.0673 41.3626 17.0806 41.5021C17.0946 41.6545 17.1481 41.7159 17.2976 41.749C17.4407 41.7806 17.5866 41.7989 17.7393 41.8244L17.7523 41.9423C17.7573 42.2172 17.7285 42.2377 17.4615 42.2366C16.838 42.2341 16.2145 42.2381 15.5913 42.2449C15.4932 42.2463 15.4515 42.2154 15.4541 42.1198L15.4526 42.0789C15.4364 41.8313 15.4436 41.8219 15.6779 41.7817L15.7886 41.7594C16.0424 41.7023 16.1074 41.6347 16.111 41.377C16.1229 40.5609 16.1272 39.7451 16.1354 38.929C16.1365 38.8118 16.0923 38.7209 15.9831 38.6724C15.8297 38.6052 15.6755 38.54 15.5205 38.4769C15.435 38.4416 15.3373 38.4194 15.334 38.3011C15.3319 38.2178 15.421 38.1441 15.5428 38.1193C15.7876 38.0697 16.0344 38.0284 16.2763 37.9676C16.5171 37.9076 16.7536 37.8271 17.0173 37.7481Z" fill="#4F372B"/>
<path fill-rule="evenodd" clip-rule="evenodd" d="M30.4982 39.8799C30.4867 40.6421 30.2886 41.2584 29.7496 41.7209C29.0668 42.3078 28.0016 42.5073 27.1308 42.0685C26.7592 41.8812 26.4861 41.5941 26.3082 41.2214C26.0354 40.6482 25.9672 40.0455 26.1095 39.4281C26.2503 38.8175 26.6201 38.3752 27.1736 38.0887C27.7428 37.7944 28.3423 37.6794 28.9744 37.8339C29.774 38.0291 30.3487 38.681 30.4629 39.5111C30.4834 39.6567 30.4913 39.804 30.4982 39.8799ZM29.5721 40.2928L29.5411 40.2892C29.5411 40.2173 29.5451 40.1454 29.5404 40.0736C29.5142 39.6258 29.4136 39.1992 29.1541 38.8244C28.9079 38.4693 28.5726 38.2598 28.1363 38.2293C27.648 38.1948 27.2376 38.4679 27.0934 38.9667C26.8771 39.7156 26.9504 40.4455 27.3306 41.1316C27.4963 41.4306 27.7418 41.6512 28.0706 41.7673C28.7149 41.9941 29.2863 41.7005 29.4542 41.0406C29.516 40.797 29.534 40.5422 29.5721 40.2928Z" fill="#4F382B"/>
<path fill-rule="evenodd" clip-rule="evenodd" d="M14.6695 39.9388C14.6562 40.4857 14.5272 40.9914 14.1894 41.4309C13.8275 41.9017 13.3301 42.1532 12.7644 42.2593C12.0956 42.3843 11.4675 42.2708 10.9302 41.8219C10.675 41.6084 10.5007 41.3349 10.3857 41.0237C10.1971 40.5134 10.15 39.9905 10.2661 39.4576C10.3901 38.8872 10.7121 38.4513 11.2112 38.1588C11.7884 37.8213 12.4112 37.6708 13.0764 37.8224C13.9317 38.0179 14.4255 38.5753 14.608 39.4191C14.6447 39.5895 14.6497 39.7655 14.6695 39.9388ZM13.733 40.2996L13.7082 40.296V40.1932C13.6941 39.6915 13.596 39.2135 13.2967 38.7967C13.0749 38.4873 12.7781 38.2932 12.3975 38.2389C11.7772 38.1505 11.3719 38.5185 11.2375 39.0184C11.0621 39.6714 11.1171 40.3165 11.3884 40.9357C11.5577 41.3216 11.825 41.6224 12.2358 41.7683C12.8762 41.9958 13.4562 41.6947 13.6183 41.0374C13.678 40.797 13.6959 40.5461 13.733 40.2996Z" fill="#4F372B"/>
<path fill-rule="evenodd" clip-rule="evenodd" d="M29.5985 12.0549C30.0395 13.3296 30.3564 14.6309 30.461 15.9792C30.5904 17.6525 30.5314 19.3142 30.1785 20.9598L30.1332 21.0914C30.0226 21.0917 29.9097 21.0777 29.8015 21.0946C28.8877 21.2383 27.9748 21.3871 27.0617 21.5352C26.1176 21.6883 25.1728 21.8353 24.2305 21.9984C23.8967 22.0559 23.4834 21.9873 23.3486 22.4487L23.2839 22.4706L23.3296 19.7114L23.2832 13.0536L23.7231 12.9781C24.4422 12.8606 25.1613 12.7409 25.8815 12.6263C26.7404 12.4901 27.6 12.3571 28.4596 12.2241C28.8391 12.1659 29.219 12.1117 29.5985 12.0549Z" fill="#439934"/>
<path fill-rule="evenodd" clip-rule="evenodd" d="M22.3771 30.5149C21.9131 30.116 21.433 29.7347 20.9884 29.3149C18.5957 27.058 16.8452 24.4012 15.9831 21.1981C15.7455 20.3169 15.5874 19.421 15.5364 18.5103C15.5004 17.8728 15.449 17.2299 15.4943 16.5956C15.614 14.909 15.858 13.2386 16.3525 11.6139L16.3798 11.5762C16.428 11.6401 16.497 11.6969 16.5214 11.7692C17.0042 13.1908 17.4838 14.6138 17.9604 16.0382C19.4586 20.5127 20.955 24.9884 22.4558 29.4623C22.4852 29.5496 22.5611 29.6211 22.6157 29.6998L22.3771 30.5149Z" fill="#45A538"/>
<path fill-rule="evenodd" clip-rule="evenodd" d="M29.5985 12.0549C29.2186 12.1113 28.8388 12.1659 28.4596 12.2241C27.6 12.3571 26.7404 12.4901 25.8815 12.6263C25.1617 12.7405 24.4426 12.8602 23.7231 12.9781L23.2832 13.0536L23.2796 12.7668C23.2649 12.531 23.2404 12.2953 23.2372 12.0595L23.188 7.54793C23.1765 6.60673 23.1592 5.66553 23.1402 4.72468C23.1305 4.13991 23.1136 3.55529 23.0895 2.97093C23.0751 2.6572 23.0245 2.3449 23.0043 2.03117C22.9925 1.85076 23.0083 1.66892 23.0122 1.48779C23.2365 1.92228 23.4561 2.36 23.6864 2.79125C24.0505 3.47298 24.6309 3.97539 25.1538 4.52343C27.2187 6.69082 28.6846 9.20932 29.5985 12.0549Z" fill="#46A037"/>
<path fill-rule="evenodd" clip-rule="evenodd" d="M23.2855 22.4706L23.3502 22.4487C23.485 21.9873 23.8983 22.0559 24.2321 21.9984C25.1744 21.8353 26.1192 21.6883 27.0633 21.5352C27.9765 21.3875 28.8893 21.2387 29.8032 21.0946C29.9113 21.0777 30.0242 21.0917 30.1349 21.0914C29.9642 21.7009 29.8298 22.3237 29.6131 22.9163C29.3669 23.5883 29.0693 24.2445 28.7534 24.8878C28.2802 25.8471 27.6948 26.7468 27.0094 27.568C26.4825 28.2012 25.8953 28.7874 25.307 29.3656C24.9814 29.6851 24.5983 29.9456 24.2411 30.2331L24.1484 30.1699L23.8153 29.8853L23.4706 29.1291C23.2353 28.2474 23.1068 27.3405 23.0879 26.4281L23.0944 26.2743L23.1414 25.608C23.1569 25.3805 23.1777 25.1534 23.1874 24.9259C23.2219 24.108 23.2528 23.2893 23.2855 22.4706Z" fill="#409433"/>
<path fill-rule="evenodd" clip-rule="evenodd" d="M23.2843 22.4706C23.252 23.2893 23.221 24.1083 23.1862 24.927C23.1765 25.1548 23.156 25.3819 23.1402 25.6091L22.9303 25.6885C22.4638 24.3153 21.997 22.9565 21.5406 21.5945C20.7856 19.3408 20.0399 17.084 19.2859 14.8296C18.6771 13.0102 18.064 11.1923 17.4466 9.37574C17.4175 9.29093 17.3348 9.22408 17.2773 9.14897L18.6214 6.67755C18.6678 6.75769 18.7285 6.8328 18.7576 6.91905C19.3793 8.75905 20 10.5994 20.6152 12.4416C21.4159 14.8386 22.2112 17.2367 23.0112 19.6341C23.0432 19.7297 23.0956 19.8181 23.1459 19.9256L23.3299 19.7114L23.2843 22.4706Z" fill="#4FAA41"/>
<path fill-rule="evenodd" clip-rule="evenodd" d="M17.2773 9.14899C17.3352 9.2241 17.4179 9.29094 17.4466 9.37575C18.064 11.1923 18.6771 13.0102 19.2859 14.8296C20.0399 17.084 20.7856 19.3409 21.5406 21.5945C21.997 22.9565 22.4638 24.315 22.9303 25.6885L23.1402 25.6091L23.0931 26.2754L23.0503 26.4288C22.9774 27.158 22.9159 27.8886 22.8268 28.6163C22.7823 28.9811 22.687 29.339 22.6148 29.6998C22.5605 29.6211 22.4843 29.5496 22.4549 29.4623C20.9538 24.9884 19.4577 20.5128 17.9594 16.0382C17.4828 14.6142 17.0031 13.1912 16.5205 11.7692C16.4961 11.697 16.4271 11.6402 16.3789 11.5762L17.2773 9.14899Z" fill="#4AA73C"/>
<path fill-rule="evenodd" clip-rule="evenodd" d="M23.3296 19.7113L23.1456 19.9255C23.0953 19.8181 23.0428 19.7297 23.0109 19.6341C22.2109 17.2367 21.4156 14.8386 20.6149 12.4415C19.9989 10.5996 19.3797 8.75878 18.7573 6.91903C18.7282 6.83278 18.6675 6.75767 18.6211 6.67753L20.2832 4.49109C20.3357 4.56081 20.4104 4.62298 20.4374 4.70168C20.8986 6.05293 21.3564 7.40526 21.8109 8.75867C22.2357 10.0229 22.654 11.2887 23.0838 12.5508C23.1126 12.6352 23.2128 12.6949 23.2797 12.7668L23.2833 13.0536L23.3296 19.7113Z" fill="#57AE47"/>
<path fill-rule="evenodd" clip-rule="evenodd" d="M23.2797 12.7668C23.2125 12.6953 23.1126 12.6356 23.0838 12.5508C22.6544 11.2887 22.2357 10.023 21.8109 8.75867C21.3563 7.40526 20.8984 6.05292 20.4374 4.70169C20.4104 4.62299 20.3357 4.56082 20.2832 4.4911C20.8237 3.96174 21.3473 3.41333 21.9097 2.90841C22.4096 2.45991 22.8114 1.97907 22.8301 1.27002L22.8696 1.12878L23.0119 1.48744C23.0083 1.66857 22.9922 1.85041 23.004 2.03082C23.0245 2.34455 23.0752 2.65685 23.0892 2.97058C23.1154 3.55457 23.128 4.13963 23.1399 4.72433C23.1589 5.66517 23.1762 6.60638 23.1877 7.54758L23.2369 12.0592C23.2405 12.2953 23.2653 12.531 23.2797 12.7668Z" fill="#60B24F"/>
<path fill-rule="evenodd" clip-rule="evenodd" d="M22.6159 29.6994C22.6882 29.3386 22.7834 28.9807 22.828 28.6159C22.9171 27.8886 22.9785 27.1576 23.0515 26.4284L23.0698 26.4255L23.0878 26.4288C23.1067 27.3412 23.2352 28.2481 23.4705 29.1298C23.422 29.1938 23.3541 29.2502 23.3282 29.3221C23.1288 29.8849 22.9405 30.4523 22.7399 31.0148C22.7126 31.0917 22.6357 31.1517 22.5822 31.2189L22.377 30.5145L22.6159 29.6994Z" fill="#A9AA88"/>
<path fill-rule="evenodd" clip-rule="evenodd" d="M22.582 31.2193C22.6356 31.1517 22.7125 31.0921 22.7398 31.0152C22.9403 30.4527 23.1286 29.8853 23.3281 29.3225C23.3536 29.2506 23.4219 29.1942 23.4704 29.1302L23.815 29.8864C23.7471 29.9827 23.653 30.07 23.6152 30.1775L22.9554 32.1152C22.9281 32.1932 22.8358 32.2478 22.7732 32.3136L22.582 31.2193Z" fill="#B6B598"/>
<path fill-rule="evenodd" clip-rule="evenodd" d="M22.7734 32.3132C22.8356 32.2474 22.9283 32.1928 22.9556 32.1148L23.6155 30.1771C23.6528 30.0696 23.7473 29.9823 23.8153 29.886L24.1488 30.1703C23.9878 30.3295 23.8983 30.5135 23.9522 30.746L23.8508 31.0777C23.8048 31.1345 23.738 31.184 23.7154 31.2491C23.485 31.9089 23.2654 32.5723 23.0333 33.2318C23.0038 33.3151 22.9222 33.3809 22.8651 33.4549L22.7734 32.3132Z" fill="#C2C1A7"/>
<path fill-rule="evenodd" clip-rule="evenodd" d="M22.8637 33.4546C22.9212 33.3806 23.0028 33.3148 23.0319 33.2314C23.2641 32.572 23.484 31.9086 23.714 31.2488C23.7366 31.1837 23.8035 31.1345 23.8495 31.0773L23.7097 32.5996C23.6723 32.6428 23.6184 32.6805 23.6004 32.7305L23.1354 34.063C23.1027 34.1539 23.0402 34.2352 22.9913 34.3203C22.9478 34.2636 22.8702 34.2086 22.8666 34.1496C22.8529 33.9189 22.8626 33.6864 22.8637 33.4546Z" fill="#CECDB7"/>
<path fill-rule="evenodd" clip-rule="evenodd" d="M22.9922 34.3207C23.0411 34.2355 23.1036 34.1543 23.1363 34.0634L23.6013 32.7308C23.6193 32.6805 23.6736 32.6431 23.7106 32.6L23.7142 33.599L23.3796 34.4569L22.9922 34.3207Z" fill="#DBDAC7"/>
<path fill-rule="evenodd" clip-rule="evenodd" d="M23.3789 34.4569L23.7135 33.5991L23.7825 34.6139L23.3789 34.4569Z" fill="#EBE9DC"/>
<path fill-rule="evenodd" clip-rule="evenodd" d="M23.9511 30.7459C23.8976 30.5138 23.9867 30.3298 24.1477 30.1702L24.2404 30.2335L23.9511 30.7459Z" fill="#CECDB7"/>
<path fill-rule="evenodd" clip-rule="evenodd" d="M23.0871 26.4291L23.0691 26.4259L23.0508 26.4288L23.0935 26.2753L23.0871 26.4291Z" fill="#4FAA41"/>
</svg>
