<svg width="44" height="44" viewBox="0 0 44 44" fill="none" xmlns="http://www.w3.org/2000/svg">
<g clip-path="url(#clip0_2026_10)">
<path d="M22.0007 43.9193C21.3736 43.9193 20.7907 43.7561 20.2462 43.4738L14.693 40.2875C13.8588 39.8438 14.2768 39.6825 14.528 39.6018C15.6537 39.2388 15.8626 39.1581 17.0323 38.511C17.157 38.4303 17.3256 38.4706 17.4503 38.5513L21.7092 41.0135C21.8741 41.0942 22.085 41.0942 22.2097 41.0135L38.8691 31.6928C39.0341 31.6122 39.1185 31.4508 39.1185 31.2491V12.6482C39.1185 12.4465 39.036 12.2851 38.8691 12.2045L22.2097 2.92598C22.0428 2.84532 21.8338 2.84532 21.7092 2.92598L5.04965 12.2045C4.88282 12.2851 4.79848 12.4868 4.79848 12.6482V31.2491C4.79848 31.4105 4.88282 31.6122 5.04965 31.6928L9.59998 34.2356C12.064 35.4456 13.6077 34.034 13.6077 32.6223V14.2633C13.6077 14.0213 13.8167 13.7793 14.11 13.7793H16.2385C16.4897 13.7793 16.739 13.981 16.739 14.2633V32.6205C16.739 35.8086 14.9441 37.664 11.8128 37.664C10.8521 37.664 10.1005 37.664 7.97198 36.6556L3.58848 34.2356C3.06065 33.9447 2.61986 33.5184 2.31149 33.0006C2.00312 32.4828 1.83829 31.8922 1.83398 31.2895V12.6885C1.83398 11.4785 2.50132 10.3491 3.58848 9.74415L20.248 0.421649C20.7906 0.14423 21.3913 -0.000427246 22.0007 -0.000427246C22.61 -0.000427246 23.2107 0.14423 23.7533 0.421649L40.4146 9.74232C41.5 10.3473 42.1673 11.4767 42.1673 12.6867V31.2876C42.1673 32.4977 41.5 33.627 40.4146 34.2338L23.7551 43.5527C23.2014 43.7927 22.6042 43.9163 22.0007 43.9156M27.1358 31.1245C19.83 31.1245 18.3267 27.8978 18.3267 25.1533C18.3267 24.9113 18.5357 24.6693 18.8272 24.6693H20.9978C21.249 24.6693 21.4562 24.8306 21.4562 25.0726C21.7917 27.2103 22.7523 28.259 27.178 28.259C30.6852 28.259 32.1885 27.4926 32.1885 25.6776C32.1885 24.629 31.7705 23.8626 26.3016 23.3383C21.7495 22.8928 18.9115 21.9266 18.9115 18.4158C18.9115 15.147 21.7495 13.2091 26.5107 13.2091C31.8548 13.2091 34.4856 14.9856 34.8193 18.8595C34.8152 18.9906 34.7711 19.1173 34.6928 19.2225C34.6103 19.3031 34.4856 19.3838 34.3591 19.3838H32.1885C32.083 19.3813 31.9813 19.3445 31.8986 19.279C31.8159 19.2135 31.7568 19.1229 31.7301 19.0208C31.2278 16.8025 29.9335 16.0746 26.5107 16.0746C22.668 16.0746 22.2097 17.3653 22.2097 18.3351C22.2097 19.5048 22.7523 19.8678 27.9296 20.5131C33.0648 21.1585 35.4867 22.0861 35.4867 25.5548C35.4445 29.1078 32.4396 31.1245 27.1358 31.1245Z" fill="black"/>
</g>
<defs>
<clipPath id="clip0_2026_10">
<rect width="44" height="44" fill="white"/>
</clipPath>
</defs>
</svg>
