<svg width="55" height="55" viewBox="0 0 55 55" fill="none" xmlns="http://www.w3.org/2000/svg">
<path d="M16.3131 2.97944C15.4021 3.01038 14.5342 3.2321 13.75 3.68413C12.1825 4.58905 11.2466 6.24937 10.826 8.21433C10.4057 10.1797 10.45 12.5168 10.8689 15.1323C11.0305 16.1408 11.2668 17.2012 11.5401 18.2853C10.4646 18.5904 9.42777 18.917 8.47387 19.2814C5.99887 20.2267 3.95355 21.3567 2.46168 22.7038C0.969805 24.0509 0 25.6901 0 27.5C0 29.3098 0.969375 30.9504 2.46168 32.297C3.95312 33.6445 5.99844 34.7746 8.47344 35.7199C9.42734 36.0843 10.4642 36.41 11.5397 36.7155C11.2664 37.7996 11.0301 38.8601 10.8685 39.8681C10.4496 42.4849 10.4062 44.8211 10.8264 46.7861C11.2475 48.7519 12.1821 50.4118 13.7496 51.3167C15.3171 52.2216 17.2214 52.2019 19.134 51.5831C21.0461 50.9644 23.0484 49.7582 25.1045 48.0872C25.8968 47.4435 26.6973 46.7096 27.5 45.9301C28.3018 46.7096 29.1027 47.4435 29.8951 48.0872C31.9507 49.7587 33.9522 50.9648 35.8647 51.5835C37.7768 52.2023 39.6825 52.2216 41.25 51.3171C42.8175 50.4118 43.7534 48.7519 44.174 46.7865C44.5943 44.8211 44.5491 42.4845 44.1302 39.8685C43.9686 38.8601 43.7332 37.7996 43.4599 36.7155C44.5354 36.4104 45.5722 36.0839 46.5261 35.7199C49.0011 34.775 51.0464 33.6445 52.5383 32.2975C54.0302 30.9504 55 29.3098 55 27.5C55 25.6901 54.0306 24.0505 52.5383 22.7038C51.0464 21.3572 49.0011 20.2262 46.5261 19.2814C45.5722 18.9174 44.5362 18.5904 43.4607 18.2853C43.734 17.2012 43.9695 16.1403 44.1311 15.1323C44.55 12.5168 44.5934 10.1797 44.1732 8.21433C43.7529 6.24894 42.8179 4.58905 41.25 3.68413C39.6821 2.77921 37.7781 2.79897 35.8656 3.41772C33.9535 4.03647 31.9511 5.24304 29.8951 6.91366C29.1027 7.55819 28.3009 8.2921 27.4987 9.07155C26.6965 8.29253 25.896 7.55776 25.1036 6.91366C23.0484 5.24304 21.0478 4.03562 19.1357 3.41687C18.1792 3.10749 17.2245 2.94851 16.3127 2.97858L16.3131 2.97944ZM16.4231 5.36206C16.9946 5.34573 17.6494 5.45101 18.3996 5.69292C19.8993 6.17847 21.6975 7.2269 23.5959 8.76948C24.3272 9.36331 25.0753 10.0508 25.8289 10.7847C24.2546 12.4863 22.6931 14.4212 21.1823 16.5571C18.5771 16.7978 16.1206 17.1828 13.8591 17.6958C13.6013 16.6757 13.3796 15.6849 13.2305 14.7537C12.8438 12.3389 12.8352 10.2571 13.1652 8.71534C13.4948 7.17405 14.1114 6.23733 14.9458 5.75565C15.363 5.51503 15.8516 5.37753 16.4231 5.36206ZM38.5773 5.36206C39.1488 5.37796 39.6374 5.5146 40.0546 5.75565C40.8891 6.2369 41.5057 7.17362 41.8352 8.71491C42.1648 10.2562 42.1575 12.3385 41.7708 14.7537C41.6217 15.684 41.4004 16.6762 41.1421 17.6954C38.8811 17.1828 36.4242 16.7973 33.8181 16.5571C32.3073 14.4216 30.745 12.4863 29.1706 10.7843C29.9243 10.0508 30.6732 9.36288 31.4046 8.76905C33.3029 7.22562 35.1012 6.1789 36.6012 5.69335C37.351 5.45101 38.0063 5.34616 38.5778 5.36249L38.5773 5.36206ZM27.5 12.5048C28.625 13.7326 29.6918 15.0124 30.6969 16.3401C29.6467 16.2929 28.5841 16.2611 27.5 16.2611C26.4163 16.2611 25.3537 16.2925 24.3031 16.3401C25.3077 15.012 26.3745 13.7321 27.5 12.5048ZM27.5 18.6527C29.2123 18.6527 30.8816 18.7202 32.499 18.8418C33.4396 20.2192 34.3281 21.6314 35.1626 23.0755C35.9961 24.5206 36.7749 25.9964 37.4975 27.5C36.7749 29.0033 35.996 30.4788 35.1626 31.9236C34.328 33.3682 33.4393 34.7808 32.4986 36.1586C30.8816 36.2802 29.2123 36.3481 27.5004 36.3481C25.8317 36.3478 24.1637 36.2847 22.4997 36.1591C21.5594 34.7811 20.6712 33.3683 19.837 31.9236C19.0035 30.4791 18.2247 29.0038 17.502 27.5008C18.2249 25.9973 19.0041 24.5214 19.8378 23.0764C20.6725 21.632 21.5611 20.2194 22.5019 18.8418C24.1651 18.7162 25.832 18.6531 27.5 18.6527ZM19.4335 19.1525C18.8572 20.0492 18.3013 20.959 17.7663 21.881C17.2352 22.8051 16.7252 23.7412 16.2366 24.6885C15.589 23.1543 15.0138 21.5905 14.5127 20.0024C16.0553 19.6586 17.6975 19.3707 19.4335 19.1525ZM35.567 19.1525C37.2196 19.3587 38.8617 19.6423 40.4877 20.0024C39.9867 21.5908 39.4114 23.1549 38.7638 24.6894C38.2752 23.7417 37.7652 22.8051 37.2341 21.8805C36.6991 20.9585 36.1432 20.0488 35.567 19.152V19.1525ZM12.1881 20.588C12.8747 22.8026 13.7698 25.123 14.865 27.4991C13.7693 29.8762 12.8756 32.1973 12.1881 34.4119C11.1762 34.1262 10.2072 33.8216 9.32637 33.4855C7.04086 32.6133 5.23402 31.5786 4.06355 30.5216C2.89352 29.4654 2.39078 28.4634 2.39078 27.4996C2.39078 26.5362 2.89352 25.535 4.06355 24.4789C5.23402 23.4218 7.04129 22.3876 9.32637 21.5153C10.2072 21.1789 11.1762 20.8738 12.1881 20.5876V20.588ZM42.8119 20.588C43.8243 20.8742 44.7936 21.1793 45.6736 21.5162C47.9596 22.3884 49.7664 23.4223 50.9369 24.4789C52.1069 25.5359 52.6096 26.5371 52.6096 27.5C52.6096 28.4638 52.1069 29.4658 50.9369 30.522C49.7664 31.579 47.9591 32.6128 45.6741 33.4855C44.7932 33.8216 43.8234 34.1258 42.8115 34.4119C42.1248 32.1978 41.2302 29.8775 40.1358 27.5008C41.2311 25.1238 42.1248 22.8031 42.8119 20.588ZM27.5 22.5981C26.2 22.5983 24.9533 23.1149 24.0341 24.0341C23.1149 24.9533 22.5984 26.2 22.5981 27.5C22.5984 28.8001 23.1149 30.0468 24.0343 30.966C24.9536 31.8853 26.2004 32.4018 27.5004 32.4019C28.8004 32.4016 30.0471 31.8851 30.9663 30.9659C31.8856 30.0467 32.4021 28.8 32.4023 27.5C32.4021 26.1999 31.8855 24.9532 30.9662 24.0339C30.0469 23.1147 28.8001 22.5982 27.5 22.5981ZM38.7638 30.3114C39.4111 31.846 39.9861 33.4101 40.4869 34.9985C38.9452 35.3422 37.3029 35.6305 35.5678 35.8493C36.1437 34.952 36.6991 34.0419 37.2337 33.1194C37.7648 32.1951 38.2752 31.2589 38.7638 30.3114ZM16.2366 30.3123C16.7252 31.2595 17.2352 32.1954 17.7663 33.1194C18.3015 34.0416 18.8574 34.9516 19.4335 35.8488C17.7807 35.6431 16.1386 35.3593 14.5127 34.9985C15.0138 33.4103 15.589 31.8466 16.2366 30.3123ZM13.8583 37.3055C16.1193 37.8176 18.5763 38.2022 21.1823 38.4424C22.6931 40.5793 24.2554 42.5146 25.8298 44.2174C25.0761 44.95 24.328 45.6375 23.5967 46.2326C21.6984 47.7752 19.8984 48.8237 18.3984 49.3092C16.8988 49.7939 15.7794 49.7273 14.945 49.2456C14.1105 48.7635 13.4948 47.8276 13.1652 46.2864C12.8352 44.7446 12.8434 42.6628 13.2305 40.2467C13.3796 39.3164 13.6 38.3247 13.8583 37.3055ZM41.1413 37.3055C41.3991 38.3247 41.6208 39.3164 41.7699 40.2467C42.1566 42.6628 42.1652 44.7446 41.8352 46.2864C41.5057 47.8281 40.8891 48.7644 40.0546 49.2469C39.2202 49.7282 38.1012 49.7939 36.6012 49.3083C35.1012 48.8228 33.3029 47.7744 31.4046 46.2318C30.6737 45.6375 29.9247 44.95 29.1715 44.2166C30.7459 42.515 32.3073 40.5788 33.8181 38.4424C36.4233 38.2022 38.8798 37.8176 41.1413 37.3055ZM24.3031 38.6598C25.3682 38.7107 26.4342 38.7373 27.5004 38.7398C28.5668 38.7373 29.633 38.7107 30.6982 38.6598C29.6933 39.9886 28.6262 41.269 27.5004 42.4969C26.3749 41.269 25.3077 39.9885 24.3031 38.6598Z" fill="#61DAFB"/>
</svg>
