<svg width="37" height="37" viewBox="0 0 37 37" fill="none" xmlns="http://www.w3.org/2000/svg">
<path d="M26.2083 12.3333V24.6666H32.375M20.0417 23.125L21.5833 24.6666M4.625 23.125C4.625 23.5339 4.78743 23.926 5.07654 24.2151C5.36566 24.5042 5.75779 24.6666 6.16667 24.6666H9.25C9.65888 24.6666 10.051 24.5042 10.3401 24.2151C10.6292 23.926 10.7917 23.5339 10.7917 23.125V20.0416C10.7917 19.6328 10.6292 19.2406 10.3401 18.9515C10.051 18.6624 9.65888 18.5 9.25 18.5H6.16667C5.75779 18.5 5.36566 18.3376 5.07654 18.0484C4.78743 17.7593 4.625 17.3672 4.625 16.9583V13.875C4.625 13.4661 4.78743 13.074 5.07654 12.7849C5.36566 12.4957 5.75779 12.3333 6.16667 12.3333H9.25C9.65888 12.3333 10.051 12.4957 10.3401 12.7849C10.6292 13.074 10.7917 13.4661 10.7917 13.875M18.5 12.3333C19.3178 12.3333 20.102 12.6582 20.6802 13.2364C21.2585 13.8146 21.5833 14.5989 21.5833 15.4166V21.5833C21.5833 22.4011 21.2585 23.1853 20.6802 23.7636C20.102 24.3418 19.3178 24.6666 18.5 24.6666C17.6822 24.6666 16.898 24.3418 16.3198 23.7636C15.7415 23.1853 15.4167 22.4011 15.4167 21.5833V15.4166C15.4167 14.5989 15.7415 13.8146 16.3198 13.2364C16.898 12.6582 17.6822 12.3333 18.5 12.3333Z" stroke="black" stroke-width="2" stroke-linecap="round" stroke-linejoin="round"/>
</svg>
