<svg width="24" height="24" viewBox="0 0 24 24" fill="none" xmlns="http://www.w3.org/2000/svg">
<path d="M20.0838 15.2L21.2858 15.921C21.36 15.9654 21.4214 16.0283 21.464 16.1035C21.5066 16.1787 21.529 16.2636 21.529 16.35C21.529 16.4365 21.5066 16.5214 21.464 16.5966C21.4214 16.6718 21.36 16.7347 21.2858 16.779L12.5158 22.041C12.3603 22.1345 12.1823 22.1839 12.0008 22.1839C11.8194 22.1839 11.6414 22.1345 11.4858 22.041L2.71583 16.779C2.64168 16.7347 2.5803 16.6718 2.53768 16.5966C2.49506 16.5214 2.47266 16.4365 2.47266 16.35C2.47266 16.2636 2.49506 16.1787 2.53768 16.1035C2.5803 16.0283 2.64168 15.9654 2.71583 15.921L3.91783 15.2L12.0008 20.05L20.0838 15.2ZM20.0838 10.5L21.2858 11.221C21.36 11.2654 21.4214 11.3283 21.464 11.4035C21.5066 11.4787 21.529 11.5636 21.529 11.65C21.529 11.7365 21.5066 11.8214 21.464 11.8966C21.4214 11.9718 21.36 12.0347 21.2858 12.079L12.0008 17.649L2.71583 12.079C2.64168 12.0347 2.5803 11.9718 2.53768 11.8966C2.49506 11.8214 2.47266 11.7365 2.47266 11.65C2.47266 11.5636 2.49506 11.4787 2.53768 11.4035C2.5803 11.3283 2.64168 11.2654 2.71583 11.221L3.91783 10.5L12.0008 15.35L20.0838 10.5ZM12.5148 1.30905L21.2858 6.57105C21.36 6.61544 21.4214 6.6783 21.464 6.75348C21.5066 6.82867 21.529 6.91362 21.529 7.00005C21.529 7.08647 21.5066 7.17142 21.464 7.24661C21.4214 7.3218 21.36 7.38465 21.2858 7.42905L12.0008 12.999L2.71583 7.43005C2.64168 7.38565 2.5803 7.3228 2.53768 7.24761C2.49506 7.17242 2.47266 7.08747 2.47266 7.00105C2.47266 6.91462 2.49506 6.82967 2.53768 6.75448C2.5803 6.6793 2.64168 6.61644 2.71583 6.57205L11.4858 1.31005C11.6414 1.2166 11.8194 1.16724 12.0008 1.16724C12.1823 1.16724 12.3603 1.2166 12.5158 1.31005M12.0008 3.33205L5.88783 7.00005L12.0008 10.668L18.1138 7.00005L12.0008 3.33205Z" fill="#333D29"/>
</svg>
