<svg width="30" height="30" viewBox="0 0 30 30" fill="none" xmlns="http://www.w3.org/2000/svg">
<g clip-path="url(#clip0_2026_56)">
<path d="M3.75 0C2.75544 0 1.80161 0.395088 1.09835 1.09835C0.395088 1.80161 0 2.75544 0 3.75L0 26.25C0 27.2446 0.395088 28.1984 1.09835 28.9016C1.80161 29.6049 2.75544 30 3.75 30H26.25C27.2446 30 28.1984 29.6049 28.9016 28.9016C29.6049 28.1984 30 27.2446 30 26.25V3.75C30 2.75544 29.6049 1.80161 28.9016 1.09835C28.1984 0.395088 27.2446 0 26.25 0L3.75 0ZM15.4237 10.0969C14.3287 10.0969 13.6669 10.4044 13.6669 11.2088C13.6669 12.0863 14.805 12.4725 16.2169 12.9525C18.5194 13.7306 21.5494 14.7581 21.5625 18.5644C21.5625 22.2525 18.6075 24.375 14.3063 24.375C12.3659 24.3669 10.447 23.9677 8.66437 23.2013V18.2963C10.4006 19.245 12.5925 19.9462 14.3081 19.9462C15.465 19.9462 16.2919 19.6369 16.2919 18.6881C16.2919 17.7169 15.0581 17.2725 13.5675 16.7362C11.2987 15.9187 8.4375 14.8875 8.4375 11.4563C8.4375 7.80938 11.2275 5.625 15.4237 5.625C17.1774 5.60931 18.9177 5.93077 20.55 6.57188V11.415C18.9788 10.5712 16.995 10.0969 15.4237 10.0969Z" fill="black"/>
</g>
<defs>
<clipPath id="clip0_2026_56">
<rect width="30" height="30" fill="white"/>
</clipPath>
</defs>
</svg>
